<svg xmlns="http://www.w3.org/2000/svg" xmlns:xlink="http://www.w3.org/1999/xlink" width="60" height="60" viewBox="0 0 60 60">
  <defs>
    <clipPath id="clip-path">
      <rect id="Rectangle_102" data-name="Rectangle 102" width="60" height="60" transform="translate(787 709)" fill="#fff"/>
    </clipPath>
  </defs>
  <g id="Mask_Group_16" data-name="Mask Group 16" transform="translate(-787 -709)" clip-path="url(#clip-path)">
    <g id="firebase-seeklogo.com" transform="translate(796.021 709)">
      <path id="Path_247" data-name="Path 247" d="M0,48.43l.349-.509,16.5-32.6.035-.345L9.607.746a1.335,1.335,0,0,0-2.524.444Z" transform="translate(0 0)" fill="#ffc24a"/>
      <g id="Group_20" data-name="Group 20" transform="translate(0.206 0.223)">
        <path id="Path_248" data-name="Path 248" d="M.343,48.176l.264-.536L16.929,15.379,9.676,1.093a1.216,1.216,0,0,0-2.331.441Z" transform="translate(-0.343 -0.356)" fill="#ffa712"/>
        <path id="Path_249" data-name="Path 249" d="M.343,48.176l.264-.536L16.929,15.379,9.676,1.093a1.216,1.216,0,0,0-2.331.441Z" transform="translate(-0.343 -0.356)" fill="#fc0"/>
      </g>
      <path id="Path_250" data-name="Path 250" d="M33.4,30.789l5.414-5.776L33.4,14.244a1.369,1.369,0,0,0-2.458,0l-2.893,5.748v.49Z" transform="translate(-11.218 -5.054)" fill="#f4bd62"/>
      <g id="Group_21" data-name="Group 21" transform="translate(16.879 8.642)">
        <path id="Path_251" data-name="Path 251" d="M33.335,30.679,38.6,25.064l-5.264-10.44a1.193,1.193,0,0,0-2.209-.1L28.218,20.36l-.087.3Z" transform="translate(-28.131 -13.827)" fill="#ffa50e"/>
        <path id="Path_252" data-name="Path 252" d="M33.335,30.679,38.6,25.064l-5.264-10.44a1.193,1.193,0,0,0-2.209-.1L28.218,20.36l-.087.3Z" transform="translate(-28.131 -13.827)" fill="#ff8000"/>
      </g>
      <path id="Path_253" data-name="Path 253" d="M0,57.374l.158-.166.574-.243,21.107-21.9.267-.758L16.842,23.85Z" transform="translate(0 -8.944)" fill="#f6820c"/>
      <path id="Path_254" data-name="Path 254" d="M22.856,66.822l19.1-11.1-5.455-35a1.292,1.292,0,0,0-2.213-.743L0,55.775,18.993,66.821a3.826,3.826,0,0,0,3.863,0" transform="translate(0 -7.345)" fill="#fde068"/>
      <path id="Path_255" data-name="Path 255" d="M41.928,55.731,36.515,21a1.139,1.139,0,0,0-1.988-.757L.353,55.807,19.137,66.743a3.8,3.8,0,0,0,3.833,0Z" transform="translate(-0.141 -7.445)" fill="#fcca3f"/>
      <path id="Path_256" data-name="Path 256" d="M22.856,88a3.826,3.826,0,0,1-3.863,0L.153,77.11,0,77.278,18.993,88.324a3.826,3.826,0,0,0,3.863,0l19.1-11.1-.047-.3Z" transform="translate(0 -28.848)" fill="#eeab37"/>
    </g>
  </g>
</svg>
