<svg xmlns="http://www.w3.org/2000/svg" xmlns:xlink="http://www.w3.org/1999/xlink" width="745.947" height="710" viewBox="0 0 745.947 710">
  <defs>
    <linearGradient id="linear-gradient" x1="0.5" x2="0.5" y2="1" gradientUnits="objectBoundingBox">
      <stop offset="0" stop-color="#ff0"/>
      <stop offset="1" stop-color="#fb0"/>
    </linearGradient>
    <filter id="Ellipse_80" x="0" y="0" width="710" height="710" filterUnits="userSpaceOnUse">
      <feOffset dx="10" dy="20" input="SourceAlpha"/>
      <feGaussianBlur stdDeviation="10" result="blur"/>
      <feFlood flood-opacity="0.161"/>
      <feComposite operator="in" in2="blur"/>
      <feComposite in="SourceGraphic"/>
    </filter>
    <linearGradient id="linear-gradient-2" x1="0.5" y1="1" x2="0.5" y2="-0.001" gradientUnits="objectBoundingBox">
      <stop offset="0" stop-color="gray" stop-opacity="0.251"/>
      <stop offset="0.54" stop-color="gray" stop-opacity="0.122"/>
      <stop offset="1" stop-color="gray" stop-opacity="0.102"/>
    </linearGradient>
    <linearGradient id="linear-gradient-3" x1="0.5" x2="0.5" y2="1" gradientUnits="objectBoundingBox">
      <stop offset="0" stop-color="#ff0"/>
      <stop offset="0.025" stop-color="#ffff03"/>
      <stop offset="0.414" stop-color="#ff0"/>
      <stop offset="1" stop-color="#5e2203"/>
    </linearGradient>
    <linearGradient id="linear-gradient-4" x1="0.5" x2="0.5" y2="1" gradientUnits="objectBoundingBox">
      <stop offset="0" stop-color="#ff0"/>
      <stop offset="1" stop-color="#5e2203"/>
    </linearGradient>
  </defs>
  <g id="Group_34" data-name="Group 34" transform="translate(-993 -108)">
    <g transform="matrix(1, 0, 0, 1, 993, 108)" filter="url(#Ellipse_80)">
      <circle id="Ellipse_80-2" data-name="Ellipse 80" cx="325" cy="325" r="325" transform="translate(20 10)" fill="url(#linear-gradient)"/>
    </g>
    <g id="undraw_programming_2svr" transform="translate(1001 242.513)">
      <g id="Group_16" data-name="Group 16" transform="translate(0)" opacity="0.1">
        <path id="Path_160" data-name="Path 160" d="M156.891,134.417V512.478l-30.416.341a61.438,61.438,0,0,1-19.164-2.834V180.411h.05C122.3,161.457,139.049,145.641,156.891,134.417Z" transform="translate(-47.678 -111.85)"/>
        <path id="Path_161" data-name="Path 161" d="M786.481,181.041H101.958q3.054-4.184,6.208-8.16v-.059H784.778Q785.762,176.85,786.481,181.041Z" transform="translate(-48.534 -104.26)"/>
        <path id="Path_162" data-name="Path 162" d="M645.82,119.122v316.77h-2.494q-1.94,4.206-3.83,8.249c-.56,1.194-1.121,2.366-1.667,3.539V116.125Q641.975,117.5,645.82,119.122Z" transform="translate(37.216 -115.465)"/>
        <path id="Path_163" data-name="Path 163" d="M481.911,115.574V511.906l-7.99.089V117.265C476.572,116.686,479.231,116.115,481.911,115.574Z" transform="translate(10.988 -115.574)"/>
        <path id="Path_164" data-name="Path 164" d="M316.528,146.344V508.054l-7.983.089V145.951C311.211,146.129,313.877,146.232,316.528,146.344Z" transform="translate(-15.476 -109.57)"/>
        <path id="Path_165" data-name="Path 165" d="M736.445,383.131q-1.94,4.206-3.83,8.249H58.49q-1.387-4.073-2.587-8.249Z" transform="translate(-55.904 -62.697)"/>
      </g>
      <rect id="Rectangle_84" data-name="Rectangle 84" width="13.653" height="42.775" transform="translate(144.206 187.065)" fill="#3f3d56"/>
      <rect id="Rectangle_85" data-name="Rectangle 85" width="13.653" height="45.253" transform="translate(511.624 184.839)" fill="#3f3d56"/>
      <path id="Path_166" data-name="Path 166" d="M609.666,334.049v9.644L500.5,344.731l-1.164.022-41.489.393-.992.015-12.611.111h-.374L367,346.007l-126.185,1.209h-.108l-32.083.311-.345.007-142.561,1.35V337.758l33.521-20.772,67.257-.579,1.437-.007.474-.008,1.437-.022,32.292-.275,1.444-.007.46-.007,1.437-.007,10.354-.089.273-.007,25.545-.223h.208l199.327-1.736,4.879-.037h.489l3.722-.037,27.054-.23,1.437-.022,1.329-.015h.69l8.414-.067,1.667-.022,2.235-.015,7.006-.067,11.116-.1,1.437-.015,2.5-.015h.467l53.683-.475Z" transform="translate(2.677 51.698)" fill="#65617d"/>
      <path id="Path_167" data-name="Path 167" d="M609.666,334.049v9.644L500.5,344.731l-1.164.022-41.489.393-.992.015-12.611.111h-.374L367,346.007l-126.185,1.209h-.108l-32.083.311-.345.007-142.561,1.35V337.758l33.521-20.772,67.257-.579,1.437-.007.474-.008,1.437-.022,32.292-.275,1.444-.007.46-.007,1.437-.007,10.354-.089.273-.007,25.545-.223h.208l199.327-1.736,4.879-.037h.489l3.722-.037,27.054-.23,1.437-.022,1.329-.015h.69l8.414-.067,1.667-.022,2.235-.015,7.006-.067,11.116-.1,1.437-.015,2.5-.015h.467l53.683-.475Z" transform="translate(2.677 51.698)"/>
      <path id="Path_168" data-name="Path 168" d="M237.235,406.7v18.168a4.561,4.561,0,0,1-2.515,4.11,4.2,4.2,0,0,1-1.8.445l-25.078.549a4.2,4.2,0,0,1-1.94-.423,4.551,4.551,0,0,1-2.565-4.132V406.7Z" transform="translate(-32.311 -58.039)" fill="#3f3d56"/>
      <path id="Path_169" data-name="Path 169" d="M237.235,406.7v18.168a4.561,4.561,0,0,1-2.515,4.11,4.2,4.2,0,0,1-1.8.445l-25.078.549a4.2,4.2,0,0,1-1.94-.423,4.551,4.551,0,0,1-2.565-4.132V406.7Z" transform="translate(-32.311 -58.039)" opacity="0.1"/>
      <path id="Path_170" data-name="Path 170" d="M238.474,406.7v18.168a4.561,4.561,0,0,1-2.515,4.11,4.2,4.2,0,0,1-1.8.445l-25.078.549a4.2,4.2,0,0,1-1.94-.423,4.551,4.551,0,0,1-2.565-4.132V406.7Z" transform="translate(-32.113 -58.039)" fill="#3f3d56"/>
      <rect id="Rectangle_86" data-name="Rectangle 86" width="33.894" height="23.368" transform="translate(481.445 348.662)" fill="#3f3d56"/>
      <rect id="Rectangle_87" data-name="Rectangle 87" width="33.894" height="23.368" transform="translate(481.445 348.662)" opacity="0.1"/>
      <rect id="Rectangle_88" data-name="Rectangle 88" width="33.894" height="23.368" transform="translate(480.008 348.662)" fill="#3f3d56"/>
      <path id="Path_171" data-name="Path 171" d="M144.724,164.657v4.251l-13.652-.363v-3.887Z" transform="translate(13.135 22.4)" opacity="0.1"/>
      <path id="Path_172" data-name="Path 172" d="M291.029,173.894l-16.4,121.663a3.121,3.121,0,0,1-3.14,2.752l-131.352-3.516-2.493-.067a3.052,3.052,0,0,1-2.276-1.117,3.261,3.261,0,0,1-.713-2.5l18.417-127.361a3.114,3.114,0,0,1,3.262-2.693l131.826,9.214a3.051,3.051,0,0,1,2.206,1.16,3.256,3.256,0,0,1,.669,2.46Z" transform="translate(-43.307 -106.586)" fill="#0f0f0f"/>
      <path id="Path_173" data-name="Path 173" d="M110.893,61.423,97,173.687l120.717,3.954,14.845-108.31Z" transform="translate(7.683 1.998)" fill="#d4dfec"/>
      <rect id="Rectangle_89" data-name="Rectangle 89" width="147.066" height="128.585" rx="3.302" transform="translate(268.516 61.685)" fill="#0f0f0f"/>
      <path id="Path_282" data-name="Path 282" d="M0,0H133.651V107.071H0Z" transform="translate(275.457 70.342)" fill="#d4dfec"/>
      <path id="Path_174" data-name="Path 174" d="M461.458,162.8v2.812l-13.652.289v-3.1Z" transform="translate(63.819 22.033)" opacity="0.1"/>
      <path id="Path_175" data-name="Path 175" d="M582.584,289.423a2.33,2.33,0,0,1-.575,1.691,2.184,2.184,0,0,1-1.58.742l-134.513,2.871a2.24,2.24,0,0,1-2.249-2.07L432.1,168.561a2.334,2.334,0,0,1,.53-1.714,2.188,2.188,0,0,1,1.568-.786L567.7,159.207l1.437-.074a2.23,2.23,0,0,1,2.314,2.077Z" transform="translate(4.295 -106.966)" fill="#0f0f0f"/>
      <path id="Path_176" data-name="Path 176" d="M389.579,64.922,511.5,58.735l10.3,112.761-120.954,2.967Z" transform="translate(54.501 1.467)" fill="#d4dfec"/>
      <path id="Path_177" data-name="Path 177" d="M563.879,289.423a2.331,2.331,0,0,1-.575,1.691,2.184,2.184,0,0,1-1.58.742L548.99,159.207l1.437-.074a2.231,2.231,0,0,1,2.314,2.077Z" transform="translate(23 -106.966)" opacity="0.1"/>
      <path id="Path_178" data-name="Path 178" d="M156.35,161.054,140.132,294.794l-2.493-.067a3.052,3.052,0,0,1-2.276-1.117,3.261,3.261,0,0,1-.713-2.5l18.417-127.361A3.114,3.114,0,0,1,156.35,161.054Z" transform="translate(-43.307 -106.587)" opacity="0.1"/>
      <rect id="Rectangle_91" data-name="Rectangle 91" width="13.653" height="12.671" transform="translate(144.206 217.169)" opacity="0.1"/>
      <path id="Path_179" data-name="Path 179" d="M189.328,299.588v3.687l-33.894.935v-4.622Z" transform="translate(17.033 49.066)" opacity="0.1"/>
      <path id="Path_180" data-name="Path 180" d="M305.141,301.075V425.854a2.925,2.925,0,0,1-2.766,2.93l-137.711,3.783h-.036a2.922,2.922,0,0,1-2.838-2.93V301.075a2.922,2.922,0,0,1,2.838-2.93H302.3a2.922,2.922,0,0,1,2.838,2.93Z" transform="translate(-38.96 -79.492)" fill="#0f0f0f"/>
      <path id="Path_181" data-name="Path 181" d="M164.664,298.145V432.568h-.036a2.922,2.922,0,0,1-2.838-2.93V301.075a2.922,2.922,0,0,1,2.838-2.93Z" transform="translate(-38.96 -79.492)" opacity="0.1"/>
      <path id="Path_182" data-name="Path 182" d="M120.541,197.692H248.085V307.671l-127.543,2.967Z" transform="translate(11.45 28.928)" fill="#d4dfec"/>
      <rect id="Rectangle_92" data-name="Rectangle 92" width="13.653" height="12.923" transform="translate(511.624 217.169)" opacity="0.1"/>
      <path id="Path_183" data-name="Path 183" d="M454.445,299.588v4.755l-33.894-.935v-3.82Z" transform="translate(59.457 49.066)" opacity="0.1"/>
      <path id="Path_184" data-name="Path 184" d="M557.253,301.075V429.638a2.921,2.921,0,0,1-2.874,2.93h0l-137.74-3.784a2.925,2.925,0,0,1-2.766-2.93V301.075a2.922,2.922,0,0,1,2.838-2.93H554.386A2.921,2.921,0,0,1,557.253,301.075Z" transform="translate(1.379 -79.492)" fill="#0f0f0f"/>
      <path id="Path_185" data-name="Path 185" d="M537.871,301.075V429.638a2.921,2.921,0,0,1-2.874,2.93h0V298.145h0a2.921,2.921,0,0,1,2.874,2.93Z" transform="translate(20.761 -79.492)" opacity="0.1"/>
      <path id="Path_186" data-name="Path 186" d="M498.025,197.692H370.482V307.671l127.543,2.967Z" transform="translate(51.445 28.928)" fill="#d4dfec"/>
      <path id="Path_187" data-name="Path 187" d="M430.576,301.075V425.854a2.925,2.925,0,0,1-2.766,2.93L290.1,432.568h0a2.921,2.921,0,0,1-2.874-2.931V301.075a2.922,2.922,0,0,1,2.838-2.93H427.737A2.922,2.922,0,0,1,430.576,301.075Z" transform="translate(-18.888 -79.492)" fill="#0f0f0f"/>
      <path id="Path_188" data-name="Path 188" d="M245.976,197.692H373.519V307.671l-127.543,2.967Z" transform="translate(31.522 28.928)" fill="#d4dfec"/>
      <path id="Path_189" data-name="Path 189" d="M609.666,330.56V340.2L500.5,341.242l-1.164.022-41.489.393-.992.015-12.611.111h-.374L367,342.518l-126.185,1.209h-.108l-32.083.311-.345.007L65.722,345.4V334.269l145.514-.987h.345l29.454-.208h.137l203.408-1.387h.208l.122-.007h.338l3.442-.022h1.049l53.525-.371,3.162-.015.7-.007Z" transform="translate(2.677 55.187)"/>
      <ellipse id="Ellipse_38" data-name="Ellipse 38" cx="36.883" cy="38.079" rx="36.883" ry="38.079" transform="translate(305.4 153.681)" fill="#fbbebe"/>
      <path id="Path_190" data-name="Path 190" d="M237.7,495.308a.944.944,0,0,1,.072-.26c.719-2.663,2-7.166,2.953-10.764.122-.445.237-.883.345-1.3,1.056-4.058,3.111-13.561,4.254-19.488.4-2.085.719-3.709.783-4.525.144-1.254,2.307-6.617,4.757-12.782,1.717-4.332,3.593-9.065,4.965-13.057a46.644,46.644,0,0,0,2.105-7.307,3.9,3.9,0,0,0,0-1.58,11.228,11.228,0,0,1-.345-2.6h0c-.165-4.6,1.164-11.87,3.219-14.919,2.515-3.709,4.311-17.552,4.311-17.552s3.722.556,4.311-2.619a4.713,4.713,0,0,0,.072-1.039,5.679,5.679,0,0,0-.065-.823c-.64-4.629,10.577-9.555,16.886-10.616a13.681,13.681,0,0,1,2.156-.208,19.06,19.06,0,0,0,4.491-1.068q1.006-.319,2.156-.742c2.644-.92,5.806-2.137,9.162-3.472,12.618-5.052,27.894-11.87,27.894-11.87.108-.527.23-1.031.366-1.528A20.376,20.376,0,0,1,344.3,341.152h0v-1.484c0-2.559-.108-5.193-.216-7.819,0-.512-.043-1.024-.072-1.536v-.838c0-.519-.05-1.039-.079-1.55l-.129-.1a12.028,12.028,0,0,1-2.8-3.116,11.487,11.487,0,0,1-1.02-2.226c-.9-2.515-1.107-5.319-1.71-7.975l-.129-.549a63.6,63.6,0,0,0-2.874-7.849c-1.588-4.021-2.81-8.16-4.024-12.352q-1.107-3.806-2.235-7.626l-1.135-3.887c-.216-.742-.431-1.484-.6-2.226h0a10.158,10.158,0,0,1-.187-1.039h0a7.65,7.65,0,0,1,.172-3.42q.419-1.137.948-2.226a5.979,5.979,0,0,0,.359-1.024h0a2.3,2.3,0,0,0,.057-.237,4.322,4.322,0,0,0,.079-.8,14.118,14.118,0,0,0-.374-2.886.055.055,0,0,1,0-.037,1.939,1.939,0,0,0-.036-.2,19.505,19.505,0,0,1-.259-2.226,21.67,21.67,0,0,1,2.493-11.551l.136-.267a18.788,18.788,0,0,1,1.322-2.062h0a10.373,10.373,0,0,1,.719-.905c-1.006.994-2.659.556-3.593-.512a2.676,2.676,0,0,1-.4-.556,2.858,2.858,0,0,1-.165-.334c-.036-.089-.065-.185-.094-.282-.5-1.818.374-3.754,1.523-5.23a13.384,13.384,0,0,1,4.124-3.487h0a2.751,2.751,0,0,1,.288-.156,12.072,12.072,0,0,1,1.9-.786h0a10.55,10.55,0,0,1,1.171-.326l-2.666-.252-1.078-.1a10.509,10.509,0,0,1,9.341-8.094h.776a8.166,8.166,0,0,1,1.128.1,3.306,3.306,0,0,1-1.9-3.212,10.144,10.144,0,0,0,6.6,2.27h.273a22.964,22.964,0,0,1-.244-2.426h0a25.382,25.382,0,0,1,0-3.309,5.947,5.947,0,0,0,4.872,1.677l-1.495-2.151a6.675,6.675,0,0,0,4.714,1.521l.345-.037a4.891,4.891,0,0,0,.855-.171h.065c-.137-.178-.259-.363-.381-.556l-.043-.089a7.281,7.281,0,0,1-.718-1.55,5.028,5.028,0,0,1-.172-.645h0a6.687,6.687,0,0,1,.323-4.043c2.321,2,4.865,4.74,7.9,2.671s3.14-5.868,7.9-5.482a7.353,7.353,0,0,1,6.043,4.54,4.747,4.747,0,0,1,5.511-1.3,5.114,5.114,0,0,1,2.788,5.111c1.976-.512,4.1-1.016,6-.245s3.119,3.272,2.041,4.941a1.07,1.07,0,0,1-.1.148c-.884,1.18-2.838,1.825-2.63,3.309l.3.223.934.7q5.5,4.1,10.706,8.605c1.782,1.543,3.679,3.4,3.8,5.809a6.61,6.61,0,0,1-.172,1.758h0c-.115.579-.273,1.157-.4,1.736a14.931,14.931,0,0,0-.244,4.488h0c.05.438.115.868.194,1.306,1.1,5.735,5.54,10.467,5.978,16.321v.415a13.621,13.621,0,0,1-.05,1.877c-.331,3.561-1.926,6.981-3.219,10.386-.079.208-.158.415-.23.623a106.1,106.1,0,0,0-5.03,20.891q-.532,3.778-1.437,7.485A20.1,20.1,0,0,1,401,322.442a11.789,11.789,0,0,1-2.414,2.226,13.274,13.274,0,0,1-1.9,1.046v.045c.079.453.144.905.223,1.358.043.237.079.475.122.742h0a.1.1,0,0,0,0,.044c.6,3.509,1.293,6.944,2.019,10.208l.366,1.625c9.054,3.375,10.124,10.289,10.189,12.938a7.387,7.387,0,0,1,0,1.061s13.652.371,19.042,4.451a14.451,14.451,0,0,0,3.241,1.706,58.3,58.3,0,0,0,6.647,2.144c1.157.312,2.364.616,3.593.912,2.156.512,4.441,1.009,6.647,1.484,5.885,1.224,11.425,2.226,14.235,2.967,6.7,1.751,22.038,16.929,22.038,16.929s1.8,15.312,3.593,17.545,5.03,10.082,5.03,10.082l11.885,21.818,5.03,9.177h3.233a5.477,5.477,0,0,1,2.307,1.558c.855.786,1.8,1.766,2.637,2.656l1.38,1.521.862.987s5.224.133,6.639,4.4c4.254-.126,9.478.163,13.135,1.855a10.061,10.061,0,0,1,1.437.8,6.434,6.434,0,0,1,3.1,5.267c0,.423,0,.846,0,1.261-.259,5.616-3.8,10.289-7.056,13.435l.23.423s-.108.267-.316.742c-.057.141-.129.3-.208.475h0c-.424.935-1.1,2.337-1.983,3.976a46.945,46.945,0,0,1-6.877,9.77l-.208.223-41.489.393-.122-.148-8.048-9.911-4-4.926-.122-.156-.115,1.18-.388,3.932-.934,9.5-.05.475v.126l-.108,1.1.079-1.1h-.208l-76.885.742L270.3,494.945v.623h-.1v-.623l-32.155.356Z" transform="translate(-26.812 -95.815)" fill="url(#linear-gradient-2)"/>
      <path id="Path_191" data-name="Path 191" d="M391.756,354.2s-71.5,8.9-64.67,0c2.472-3.22,3.154-12.76,3.018-23.628-.043-3.3-.158-6.721-.323-10.126-.79-16.321-2.695-32.27-2.695-32.27s62.514-30.416,55.329-6.306c-2.874,9.74-1.933,23.42.251,36.262.64,3.746,1.38,7.418,2.156,10.905q2.841,12.757,6.934,25.164Z" transform="translate(-12.582 -84.545)" fill="#fbbebe"/>
      <path id="Path_192" data-name="Path 192" d="M391.756,345.174s-71.5,8.9-64.67,0c2.472-3.22,3.154-12.76,3.018-23.628,10.9-4.807,24.768-1.224,24.768-1.224,14.6-3,23.964-2.418,29.949-.312q2.841,12.757,6.934,25.164Z" transform="translate(-12.582 -75.519)" opacity="0.1"/>
      <path id="Path_193" data-name="Path 193" d="M270.237,475.031v-.623l126.192-1.417,76.885-.742h.216l-.079,1.1.108-1.1h.136v-.126l.984-9.978.374-3.776.115-1.179.1-.987,4.441-15.29,4.441-15.267,3.736-12.856,5.705-19.644s-3.234-7.789-5.03-10.015S484.97,365.7,484.97,365.7s-15.334-15.082-22.038-16.818c-2.81-.742-8.357-1.728-14.249-2.967-2.206-.46-4.469-.95-6.647-1.484-1.229-.289-2.436-.594-3.593-.9a61.723,61.723,0,0,1-6.647-2.122,14.7,14.7,0,0,1-3.233-1.7c-5.281-4-18.517-4.451-19.027-4.451h0a.32.32,0,0,1,0-.052v-.067a7.842,7.842,0,0,0,0-.935,6.145,6.145,0,0,0-.065-1.039.964.964,0,0,0-.05-.371c-.036-.267-.079-.549-.144-.846a3.811,3.811,0,0,0-.086-.393,13.04,13.04,0,0,0-.9-2.589c-.05-.119-.115-.245-.172-.364a13.594,13.594,0,0,0-1.222-1.951c-.093-.126-.194-.26-.3-.386a14.289,14.289,0,0,0-1.954-1.958c-.194-.156-.4-.319-.6-.467a3.356,3.356,0,0,0-.366-.267l-.64-.43-.6-.356c-.525-.3-1.078-.586-1.681-.861-.187-.089-.388-.171-.589-.252s-.517-.208-.783-.312h-.043l-.539-.223c-.41-.141-.826-.267-1.265-.393l-.668-.178-.719-.171-.719-.156c-.719-.148-1.487-.282-2.292-.386l-.819-.1-.841-.089-.869-.074-1.236-.074-1.437-.052a86.911,86.911,0,0,0-18.863,2.072,50.356,50.356,0,0,0-13.113-1.248h-.625l-.719.044h-.46l-.927.089a6.679,6.679,0,0,0-.934.111c-.309.044-.632.082-.941.134l-.474.082c-.467.082-.941.171-1.437.275q-.237.044-.474.111c-.625.141-1.25.312-1.868.5-.309.089-.618.193-.927.3a4.85,4.85,0,0,0-.46.163l-.46.171-.453.185-.539.223c-.273.119-.539.245-.8.378-.151.067-.3.141-.445.223s-.295.148-.431.23a19.949,19.949,0,0,0-4.462,3.249l-.366.363-.359.378c-.122.126-.237.26-.352.393a17.55,17.55,0,0,0-1.308,1.669c-.115.156-.223.312-.331.475a19.949,19.949,0,0,0-1.236,2.166c-.093.178-.18.364-.266.542a24.762,24.762,0,0,0-1.437,3.895q-.2.742-.366,1.484s-15.212,6.929-27.83,11.944c-3.356,1.335-6.517,2.545-9.162,3.457-.769.267-1.487.512-2.156.742a18.682,18.682,0,0,1-4.491,1.068,13.7,13.7,0,0,0-2.156.208c-5.8.972-15.736,5.193-16.821,9.429a2.821,2.821,0,0,0-.072,1.039v.082c.719,5.193-4.311,4.451-4.311,4.451s-1.8,13.724-4.311,17.434c-1.818,2.671-3.061,8.628-3.219,13.123h0a15.006,15.006,0,0,0,.316,4.177v.1c.287.994-.4,3.709-1.574,7.188-1.272,3.821-3.126,8.568-4.908,13.049-2.687,6.766-5.217,12.908-5.375,14.258-.065.6-.251,1.677-.51,3.064-1.049,5.653-3.377,16.417-4.527,20.772-.855,3.249-2.1,7.7-2.953,10.757a1.068,1.068,0,0,1-.072.26l32.213-.326v.623h.057Z" transform="translate(-26.77 -75.279)" fill="url(#linear-gradient-3)"/>
      <path id="Path_194" data-name="Path 194" d="M275.92,376.348s40.958,21.885,55.688,19.288Z" transform="translate(-20.697 -64.037)" opacity="0.1"/>
      <path id="Path_195" data-name="Path 195" d="M347.774,368.915s39.88,13.353,53.173,15.208S347.774,368.915,347.774,368.915Z" transform="translate(-9.199 -65.506)" opacity="0.1"/>
      <path id="Path_196" data-name="Path 196" d="M396.532,335.471c-20.838,3.962-60.071,3.108-77.029,2.507,6.216-23,36.524-15.178,36.524-15.178C393.543,315.07,396.417,331.109,396.532,335.471Z" transform="translate(-13.723 -75.03)" opacity="0.1"/>
      <path id="Path_197" data-name="Path 197" d="M396.532,334.232c-20.838,3.962-60.071,3.108-77.029,2.508,6.216-23,36.524-15.178,36.524-15.178C393.543,313.831,396.417,329.87,396.532,334.232Z" transform="translate(-13.723 -75.275)" fill="url(#linear-gradient-4)"/>
      <path id="Path_198" data-name="Path 198" d="M481.262,416.565s24.546-3.895,25.027,7.233-12.517,18.9-12.517,18.9Z" transform="translate(12.162 -56.22)" fill="#fbbebe"/>
      <path id="Path_199" data-name="Path 199" d="M382.609,318.131a33.116,33.116,0,0,1-3.233,1.291c-7.746,2.76-15.557,5.542-23.712,6.551s-16.714.119-23.827-4.08a20.607,20.607,0,0,1-2.156-1.447c-.79-16.321-2.695-32.27-2.695-32.27s62.514-30.416,55.329-6.306C379.454,291.61,380.424,305.29,382.609,318.131Z" transform="translate(-12.525 -84.545)" opacity="0.1"/>
      <path id="Path_200" data-name="Path 200" d="M346.669,227.583a6.64,6.64,0,0,1-5.978-1.3l1.495,2.144a5.968,5.968,0,0,1-4.872-1.669,26.1,26.1,0,0,0,.23,5.749,10.212,10.212,0,0,1-6.869-2.226,3.291,3.291,0,0,0,1.9,3.2,10.326,10.326,0,0,0-11.209,7.945l3.751.356a13.211,13.211,0,0,0-7.5,4.726c-1.15,1.484-2.026,3.383-1.523,5.193s2.932,2.967,4.254,1.677a21.212,21.212,0,0,0-4.383,16.907,11.073,11.073,0,0,1,.331,3.9,33.722,33.722,0,0,1-1.358,3.479c-.719,2.166-.036,4.518.6,6.677l3.37,11.439c1.222,4.132,2.436,8.272,4.031,12.27a62.141,62.141,0,0,1,2.874,7.8c.905,3.591.941,7.522,2.874,10.66a14.476,14.476,0,0,0,5.159,4.7c7.106,4.2,15.693,5.089,23.827,4.08s15.938-3.791,23.676-6.551a21.924,21.924,0,0,0,4.915-2.226c5.353-3.62,6.546-11.024,7.545-17.545a102.262,102.262,0,0,1,5.238-21.365c1.566-4.073,3.593-8.2,3.248-12.567-.438-5.794-4.879-10.49-5.978-16.187a14.543,14.543,0,0,1,.05-5.764,13.488,13.488,0,0,0,.568-3.487c-.122-2.389-2.019-4.229-3.8-5.764q-5.8-5-11.971-9.451c-.208-1.484,1.746-2.122,2.63-3.294,1.25-1.654-.043-4.28-1.94-5.052s-4.024-.267-6,.245a4.918,4.918,0,0,0-2.782-5.088,4.636,4.636,0,0,0-5.518,1.3,7.35,7.35,0,0,0-6.05-4.51c-4.764-.386-4.857,3.375-7.9,5.445s-5.562-.66-7.9-2.648A7.065,7.065,0,0,0,346.669,227.583Z" transform="translate(-14.503 -95.341)" fill="#3f3d56"/>
      <path id="Path_201" data-name="Path 201" d="M506.6,446.637s-.64,1.573-1.818,3.85a51.284,51.284,0,0,1-6.467,9.77l-.194.215h-1.164l-41.489.393h-.992l-.122-.148-8.048-9.859-3.032-3.717-.122-.156-.259-.312-.144-.178-.187-.23-5.9-7.226,2.156-9.273,3.672-15.623.093-.378.719-2.967.51-2.225,1.71-7.255,5.863-24.963,10.419,5.564,10.987,20.03,5.9,10.757h3.233c.611,0,2.012,1.217,3.42,2.619.5.5,1.006,1.024,1.437,1.484,1.279,1.365,2.292,2.537,2.292,2.537s5.238.119,6.647,4.377a5.34,5.34,0,0,1,.18.631,30.489,30.489,0,0,0,1.818,4.866c.927,2.085,2.091,4.451,3.269,6.818,2.192,4.34,4.419,8.472,5.238,9.971l.1.185Z" transform="translate(5.025 -64.036)" fill="url(#linear-gradient-4)"/>
      <path id="Path_202" data-name="Path 202" d="M472.23,408.5l-.072,1.061v.074l-.122,1.706-.956,13.732-1.157,16.543-.331,4.659-.718,9.971v.126l-76.885.742-126.171,1.41v.623h-.1v-.831l.323-10.653.618-20.816.532-17.649.05-1.758a7.918,7.918,0,0,1,2.531-5.595,7.417,7.417,0,0,1,5.675-1.95c3.392.3,7.8.66,13.063,1.046l2.156.163c30.416,2.181,86.629,5,143.351,1.484,1.193-.067,2.393-.141,3.593-.23,8.8-.571,17.583-1.306,26.285-2.226a7.424,7.424,0,0,1,6.051,2.157,7.952,7.952,0,0,1,2.284,6.174Z" transform="translate(-22.329 -59.39)" opacity="0.1"/>
      <path id="Path_203" data-name="Path 203" d="M265.786,458.649v-.623l126.192-1.417,76.885-.742h.216v-.126l.718-9.97.309-4.451,1.178-16.773.927-13.279v-.326a8.125,8.125,0,0,0-.079-1.832.227.227,0,0,0,0-.074,7.839,7.839,0,0,0-1.437-3.442,7.468,7.468,0,0,0-6.769-2.967c-8.7.92-17.49,1.654-26.285,2.226-1.2.089-2.4.163-3.593.23-56.723,3.479-112.935.66-143.351-1.484l-2.156-.163c-5.267-.386-9.672-.742-13.063-1.046a7.618,7.618,0,0,0-8.077,6.328,8.406,8.406,0,0,0-.129,1.217l-.489,16.439-.668,20.824-.316,10.653v.831Z" transform="translate(-22.318 -58.896)" fill="#3f3d56"/>
      <path id="Path_204" data-name="Path 204" d="M472.431,412.284l-.884,11.372-1.315,16.951-.331,4.243-.719,9.5-.043.475v.126h0l-.108,1.1.079-1.1H468.9l-76.885.742L265.8,457.106V456.9l.352-10.653.719-20.816.46-13.836a4.748,4.748,0,0,1,2.2-3.895,4.378,4.378,0,0,1,2.716-.668c1.509.126,3.363.275,5.526.438,3.514.267,7.847.579,12.891.9,9.341.608,21.061,1.261,34.491,1.8,37.365,1.484,87.807,1.981,135.72-2.352,2.156-.193,4.383-.408,6.56-.623a4.377,4.377,0,0,1,2.5.49,3.7,3.7,0,0,1,.618.4,4.529,4.529,0,0,1,1.437,1.825,2.7,2.7,0,0,1,.18.453A4.8,4.8,0,0,1,472.431,412.284Z" transform="translate(-22.315 -57.976)"/>
      <path id="Path_205" data-name="Path 205" d="M238.474,419.894v2.366a4.561,4.561,0,0,1-2.515,4.11l-28.814.571a4.551,4.551,0,0,1-2.565-4.132v-2.226Z" transform="translate(-32.113 -55.431)" opacity="0.1"/>
      <path id="Path_206" data-name="Path 206" d="M190.141,320.422l-37.544.742v-6.432l37.544-.742Z" transform="translate(16.579 51.912)" fill="#3f3d56"/>
      <path id="Path_207" data-name="Path 207" d="M190.141,320.422l-37.544.742v-6.432l37.544-.742Z" transform="translate(16.579 51.912)" opacity="0.1"/>
      <path id="Path_208" data-name="Path 208" d="M191.38,320.422l-37.544.742v-6.432l37.544-.742Z" transform="translate(16.777 51.912)" fill="#3f3d56"/>
      <g id="Group_17" data-name="Group 17" transform="translate(300.409 126.589)" opacity="0.1">
        <path id="Path_209" data-name="Path 209" d="M342.7,224.493a7.352,7.352,0,0,1-1.358-3.22,7.256,7.256,0,0,0,.3,3.413A6.283,6.283,0,0,0,342.7,224.493Z" transform="translate(-310.65 -221.273)"/>
        <path id="Path_210" data-name="Path 210" d="M334.672,228.528a26.871,26.871,0,0,1-.266-2.745c0,.912,0,1.832,0,2.752Z" transform="translate(-311.746 -220.382)"/>
        <path id="Path_211" data-name="Path 211" d="M385.126,249.774a14.029,14.029,0,0,1,.259-1.966,13.748,13.748,0,0,0,.575-3.479,4.72,4.72,0,0,0-.115-.786c-.122.683-.316,1.365-.46,2.04a14.652,14.652,0,0,0-.259,4.191Z" transform="translate(-303.638 -216.873)"/>
        <path id="Path_212" data-name="Path 212" d="M372.237,230.225l.783.586a14.3,14.3,0,0,0,1.847-1.647,2.8,2.8,0,0,0,.273-2.7,2.235,2.235,0,0,1-.273.475C373.983,228.111,372.029,228.757,372.237,230.225Z" transform="translate(-305.695 -220.248)"/>
        <path id="Path_213" data-name="Path 213" d="M321.423,235.564a9.321,9.321,0,0,0-.625,1.691,12.8,12.8,0,0,1,3.593-1.4Z" transform="translate(-313.924 -218.449)"/>
        <path id="Path_214" data-name="Path 214" d="M330.066,228.975a10.629,10.629,0,0,1-1.351-.912,3.252,3.252,0,0,0,.065.875,8.262,8.262,0,0,1,1.286.037Z" transform="translate(-312.658 -219.932)"/>
        <path id="Path_215" data-name="Path 215" d="M402.533,265.321c-.295,3.6-1.919,7.062-3.233,10.475a102.217,102.217,0,0,0-5.238,21.373c-1,6.521-2.156,13.924-7.545,17.537a21.217,21.217,0,0,1-4.908,2.226c-7.746,2.767-15.557,5.542-23.712,6.55s-16.714.126-23.827-4.073a14.528,14.528,0,0,1-5.159-4.7c-1.918-3.138-1.954-7.07-2.874-10.66a62.229,62.229,0,0,0-2.874-7.8c-1.588-3.991-2.81-8.16-4.024-12.263q-1.689-5.72-3.37-11.447a21.951,21.951,0,0,1-.819-3.524,13.692,13.692,0,0,0,.819,5.749q1.682,5.735,3.37,11.447c1.214,4.132,2.436,8.272,4.024,12.263a62.227,62.227,0,0,1,2.874,7.8c.905,3.591.941,7.522,2.874,10.66a14.527,14.527,0,0,0,5.159,4.7c7.114,4.2,15.693,5.082,23.827,4.073s15.938-3.783,23.712-6.55a21.217,21.217,0,0,0,4.908-2.226c5.353-3.613,6.546-11.017,7.545-17.537a102.217,102.217,0,0,1,5.238-21.373c1.566-4.065,3.593-8.2,3.248-12.567C402.547,265.41,402.533,265.366,402.533,265.321Z" transform="translate(-314.872 -212.568)"/>
        <path id="Path_216" data-name="Path 216" d="M316.389,263.987v-.082a10.71,10.71,0,0,0-.33-3.895,20.356,20.356,0,0,1-.28-2.463,20.946,20.946,0,0,0,.28,4.689C316.173,262.814,316.3,263.4,316.389,263.987Z" transform="translate(-314.732 -214.105)"/>
        <path id="Path_217" data-name="Path 217" d="M318.537,248.5a20.58,20.58,0,0,1,1.875-2.723c-1.315,1.3-3.744.141-4.254-1.662a4.462,4.462,0,0,0,0,2.226,3.189,3.189,0,0,0,2.379,2.159Z" transform="translate(-314.689 -216.76)"/>
      </g>
      <path id="Path_218" data-name="Path 218" d="M473.039,406.7s2.278,8.531,0,15.95S473.039,406.7,473.039,406.7Z" transform="translate(10.684 -58.039)" opacity="0.1"/>
      <path id="Path_219" data-name="Path 219" d="M481.526,413.966s.956,10.831-1.2,12.752S481.526,413.966,481.526,413.966Z" transform="translate(11.897 -56.603)" opacity="0.1"/>
      <line id="Line_17" data-name="Line 17" y1="0.742" x2="73.012" transform="translate(135.146 243.467)" fill="none" stroke="#000" stroke-miterlimit="10" stroke-width="1.239"/>
      <line id="Line_18" data-name="Line 18" y1="0.734" x2="73.012" transform="translate(135.146 252.726)" fill="none" stroke="#000" stroke-miterlimit="10" stroke-width="1.239"/>
      <line id="Line_19" data-name="Line 19" y1="0.742" x2="73.012" transform="translate(135.146 261.977)" fill="none" stroke="#000" stroke-miterlimit="10" stroke-width="1.239"/>
    </g>
  </g>
</svg>
